<svg width="175" height="32" viewBox="0 0 175 32" fill="none" xmlns="http://www.w3.org/2000/svg">
<path d="M20.0415 13.7231V18.4077H4.82666V13.7231H20.0415ZM6.6084 1.85156V31H0.602539V1.85156H6.6084ZM24.3257 1.85156V31H18.3398V1.85156H24.3257ZM28.2695 20.3896V19.9692C28.2695 18.381 28.4964 16.9196 28.9502 15.585C29.404 14.237 30.0646 13.0692 30.9321 12.0815C31.7996 11.0939 32.8674 10.3265 34.1353 9.7793C35.4032 9.21875 36.8579 8.93848 38.4995 8.93848C40.1411 8.93848 41.6025 9.21875 42.8838 9.7793C44.165 10.3265 45.2394 11.0939 46.1069 12.0815C46.9878 13.0692 47.6551 14.237 48.1089 15.585C48.5627 16.9196 48.7896 18.381 48.7896 19.9692V20.3896C48.7896 21.9645 48.5627 23.4259 48.1089 24.7739C47.6551 26.1086 46.9878 27.2764 46.1069 28.2773C45.2394 29.265 44.1717 30.0324 42.9038 30.5796C41.6359 31.1268 40.1812 31.4004 38.5396 31.4004C36.8979 31.4004 35.4365 31.1268 34.1553 30.5796C32.8874 30.0324 31.813 29.265 30.9321 28.2773C30.0646 27.2764 29.404 26.1086 28.9502 24.7739C28.4964 23.4259 28.2695 21.9645 28.2695 20.3896ZM34.0352 19.9692V20.3896C34.0352 21.2972 34.1152 22.1447 34.2754 22.9321C34.4355 23.7196 34.6891 24.4136 35.0361 25.0142C35.3965 25.6014 35.8636 26.0618 36.4375 26.3955C37.0114 26.7292 37.7121 26.896 38.5396 26.896C39.3403 26.896 40.0277 26.7292 40.6016 26.3955C41.1755 26.0618 41.6359 25.6014 41.9829 25.0142C42.3299 24.4136 42.5835 23.7196 42.7437 22.9321C42.9172 22.1447 43.0039 21.2972 43.0039 20.3896V19.9692C43.0039 19.0884 42.9172 18.2609 42.7437 17.4868C42.5835 16.6994 42.3232 16.0054 41.9629 15.4048C41.6159 14.7909 41.1554 14.3104 40.5815 13.9634C40.0076 13.6164 39.3136 13.4429 38.4995 13.4429C37.6854 13.4429 36.9914 13.6164 36.4175 13.9634C35.8569 14.3104 35.3965 14.7909 35.0361 15.4048C34.6891 16.0054 34.4355 16.6994 34.2754 17.4868C34.1152 18.2609 34.0352 19.0884 34.0352 19.9692ZM65.1255 26.2754V0.25H70.9312V31H65.7061L65.1255 26.2754ZM51.4321 20.4297V20.0093C51.4321 18.3543 51.619 16.8529 51.9927 15.5049C52.3664 14.1436 52.9136 12.9757 53.6343 12.0015C54.355 11.0272 55.2425 10.2731 56.2969 9.73926C57.3512 9.2054 58.5524 8.93848 59.9004 8.93848C61.1683 8.93848 62.276 9.2054 63.2236 9.73926C64.1846 10.2731 64.9987 11.0339 65.666 12.0215C66.3467 12.9958 66.8939 14.1502 67.3076 15.4849C67.7214 16.8062 68.0216 18.2542 68.2085 19.8291V20.75C68.0216 22.2581 67.7214 23.6595 67.3076 24.9541C66.8939 26.2487 66.3467 27.3831 65.666 28.3574C64.9987 29.3184 64.1846 30.0658 63.2236 30.5996C62.2627 31.1335 61.1416 31.4004 59.8604 31.4004C58.5124 31.4004 57.3112 31.1268 56.2568 30.5796C55.2158 30.0324 54.335 29.265 53.6143 28.2773C52.9069 27.2897 52.3664 26.1286 51.9927 24.7939C51.619 23.4593 51.4321 22.0046 51.4321 20.4297ZM57.1978 20.0093V20.4297C57.1978 21.3239 57.2645 22.158 57.3979 22.9321C57.5448 23.7062 57.7783 24.3936 58.0986 24.9941C58.4323 25.5814 58.8594 26.0418 59.3799 26.3755C59.9137 26.6958 60.561 26.856 61.3218 26.856C62.3094 26.856 63.1235 26.6357 63.7642 26.1953C64.4048 25.7415 64.8919 25.1209 65.2256 24.3335C65.5726 23.5461 65.7728 22.6385 65.8262 21.6108V18.9883C65.7861 18.1475 65.666 17.3934 65.4658 16.7261C65.279 16.0454 64.9987 15.4648 64.625 14.9844C64.2646 14.5039 63.8109 14.1302 63.2637 13.8633C62.7298 13.5964 62.0959 13.4629 61.3618 13.4629C60.6144 13.4629 59.9738 13.6364 59.4399 13.9834C58.9061 14.3171 58.4723 14.7775 58.1387 15.3647C57.8184 15.952 57.5781 16.646 57.418 17.4468C57.2712 18.2342 57.1978 19.0884 57.1978 20.0093ZM81.5215 9.33887V31H75.7358V9.33887H81.5215ZM75.3755 3.69336C75.3755 2.85254 75.6691 2.15853 76.2563 1.61133C76.8436 1.06413 77.631 0.790527 78.6187 0.790527C79.5929 0.790527 80.3737 1.06413 80.9609 1.61133C81.5615 2.15853 81.8618 2.85254 81.8618 3.69336C81.8618 4.53418 81.5615 5.22819 80.9609 5.77539C80.3737 6.32259 79.5929 6.59619 78.6187 6.59619C77.631 6.59619 76.8436 6.32259 76.2563 5.77539C75.6691 5.22819 75.3755 4.53418 75.3755 3.69336ZM97.9976 25.0142C97.9976 24.6004 97.8774 24.2267 97.6372 23.8931C97.397 23.5594 96.9499 23.2524 96.2959 22.9722C95.6553 22.6785 94.7277 22.4116 93.5132 22.1714C92.4188 21.9312 91.3978 21.6309 90.4502 21.2705C89.516 20.8968 88.7018 20.4497 88.0078 19.9292C87.3271 19.4087 86.7933 18.7948 86.4062 18.0874C86.0192 17.3667 85.8257 16.5459 85.8257 15.625C85.8257 14.7174 86.0192 13.8633 86.4062 13.0625C86.8066 12.2617 87.3739 11.5544 88.1079 10.9404C88.8553 10.3132 89.7629 9.82601 90.8306 9.479C91.9116 9.11865 93.1261 8.93848 94.4741 8.93848C96.356 8.93848 97.9709 9.23877 99.3188 9.83936C100.68 10.4399 101.721 11.2674 102.442 12.3218C103.176 13.3628 103.543 14.5506 103.543 15.8853H97.7773C97.7773 15.3247 97.6572 14.8242 97.417 14.3838C97.1901 13.93 96.8298 13.5763 96.3359 13.3228C95.8555 13.0558 95.2282 12.9224 94.4541 12.9224C93.8135 12.9224 93.2596 13.0358 92.7925 13.2627C92.3254 13.4762 91.965 13.7699 91.7114 14.1436C91.4712 14.5039 91.3511 14.9043 91.3511 15.3447C91.3511 15.6784 91.4178 15.9787 91.5513 16.2456C91.6981 16.4992 91.9316 16.7327 92.252 16.9463C92.5723 17.1598 92.986 17.36 93.4932 17.5469C94.0137 17.7204 94.6543 17.8805 95.415 18.0273C96.9766 18.3477 98.3713 18.7681 99.5991 19.2886C100.827 19.7957 101.801 20.4897 102.522 21.3706C103.243 22.2381 103.603 23.3792 103.603 24.7939C103.603 25.7549 103.389 26.6357 102.962 27.4365C102.535 28.2373 101.921 28.938 101.121 29.5386C100.32 30.1258 99.3589 30.5863 98.2378 30.9199C97.13 31.2402 95.8822 31.4004 94.4941 31.4004C92.4788 31.4004 90.7705 31.04 89.3691 30.3193C87.9811 29.5986 86.9268 28.6844 86.2061 27.5767C85.4987 26.4556 85.145 25.3078 85.145 24.1333H90.6104C90.637 24.9207 90.8372 25.5547 91.2109 26.0352C91.598 26.5156 92.0851 26.8626 92.6724 27.0762C93.2729 27.2897 93.9202 27.3965 94.6143 27.3965C95.3617 27.3965 95.9823 27.2964 96.4761 27.0962C96.9699 26.8826 97.3436 26.6024 97.5972 26.2554C97.8641 25.895 97.9976 25.4813 97.9976 25.0142ZM119.038 26.1152V16.4658C119.038 15.7718 118.925 15.1779 118.698 14.6841C118.471 14.1769 118.117 13.7832 117.637 13.5029C117.17 13.2227 116.562 13.0825 115.815 13.0825C115.174 13.0825 114.62 13.196 114.153 13.4229C113.686 13.6364 113.326 13.95 113.072 14.3638C112.819 14.7642 112.692 15.238 112.692 15.7852H106.926C106.926 14.8643 107.14 13.9901 107.567 13.1626C107.994 12.3351 108.615 11.6077 109.429 10.9805C110.243 10.3398 111.21 9.83936 112.332 9.479C113.466 9.11865 114.734 8.93848 116.135 8.93848C117.817 8.93848 119.312 9.21875 120.62 9.7793C121.928 10.3398 122.955 11.1807 123.703 12.3018C124.463 13.4229 124.844 14.8242 124.844 16.5059V25.7749C124.844 26.9627 124.917 27.937 125.064 28.6978C125.211 29.4451 125.424 30.0991 125.705 30.6597V31H119.879C119.599 30.4128 119.385 29.6787 119.238 28.7979C119.105 27.9036 119.038 27.0094 119.038 26.1152ZM119.799 17.8071L119.839 21.0703H116.616C115.855 21.0703 115.194 21.1571 114.634 21.3306C114.073 21.5041 113.613 21.751 113.252 22.0713C112.892 22.3783 112.625 22.7386 112.452 23.1523C112.292 23.5661 112.211 24.0199 112.211 24.5137C112.211 25.0075 112.325 25.4546 112.552 25.855C112.779 26.242 113.106 26.549 113.533 26.7759C113.96 26.9894 114.46 27.0962 115.034 27.0962C115.902 27.0962 116.656 26.9227 117.296 26.5757C117.937 26.2287 118.431 25.8016 118.778 25.2944C119.138 24.7873 119.325 24.3068 119.338 23.853L120.86 26.2954C120.646 26.8426 120.353 27.4098 119.979 27.9971C119.619 28.5843 119.158 29.1382 118.598 29.6587C118.037 30.1659 117.363 30.5863 116.576 30.9199C115.788 31.2402 114.854 31.4004 113.773 31.4004C112.398 31.4004 111.15 31.1268 110.029 30.5796C108.922 30.019 108.041 29.2516 107.387 28.2773C106.746 27.2897 106.426 26.1686 106.426 24.9141C106.426 23.7796 106.639 22.772 107.066 21.8911C107.493 21.0103 108.121 20.2695 108.948 19.6689C109.789 19.055 110.837 18.5946 112.091 18.2876C113.346 17.9673 114.801 17.8071 116.456 17.8071H119.799ZM135.374 0.25V31H129.588V0.25H135.374ZM151.83 26.1152V16.4658C151.83 15.7718 151.717 15.1779 151.49 14.6841C151.263 14.1769 150.909 13.7832 150.429 13.5029C149.962 13.2227 149.354 13.0825 148.607 13.0825C147.966 13.0825 147.412 13.196 146.945 13.4229C146.478 13.6364 146.118 13.95 145.864 14.3638C145.611 14.7642 145.484 15.238 145.484 15.7852H139.718C139.718 14.8643 139.932 13.9901 140.359 13.1626C140.786 12.3351 141.407 11.6077 142.221 10.9805C143.035 10.3398 144.002 9.83936 145.124 9.479C146.258 9.11865 147.526 8.93848 148.927 8.93848C150.609 8.93848 152.104 9.21875 153.412 9.7793C154.72 10.3398 155.747 11.1807 156.495 12.3018C157.255 13.4229 157.636 14.8242 157.636 16.5059V25.7749C157.636 26.9627 157.709 27.937 157.856 28.6978C158.003 29.4451 158.216 30.0991 158.497 30.6597V31H152.671C152.391 30.4128 152.177 29.6787 152.03 28.7979C151.897 27.9036 151.83 27.0094 151.83 26.1152ZM152.591 17.8071L152.631 21.0703H149.408C148.647 21.0703 147.986 21.1571 147.426 21.3306C146.865 21.5041 146.405 21.751 146.044 22.0713C145.684 22.3783 145.417 22.7386 145.244 23.1523C145.083 23.5661 145.003 24.0199 145.003 24.5137C145.003 25.0075 145.117 25.4546 145.344 25.855C145.571 26.242 145.898 26.549 146.325 26.7759C146.752 26.9894 147.252 27.0962 147.826 27.0962C148.694 27.0962 149.448 26.9227 150.088 26.5757C150.729 26.2287 151.223 25.8016 151.57 25.2944C151.93 24.7873 152.117 24.3068 152.13 23.853L153.652 26.2954C153.438 26.8426 153.145 27.4098 152.771 27.9971C152.411 28.5843 151.95 29.1382 151.39 29.6587C150.829 30.1659 150.155 30.5863 149.368 30.9199C148.58 31.2402 147.646 31.4004 146.565 31.4004C145.19 31.4004 143.942 31.1268 142.821 30.5796C141.714 30.019 140.833 29.2516 140.179 28.2773C139.538 27.2897 139.218 26.1686 139.218 24.9141C139.218 23.7796 139.431 22.772 139.858 21.8911C140.285 21.0103 140.913 20.2695 141.74 19.6689C142.581 19.055 143.629 18.5946 144.883 18.2876C146.138 17.9673 147.593 17.8071 149.248 17.8071H152.591ZM167.846 14.0635V31H162.08V9.33887H167.505L167.846 14.0635ZM174.372 9.19873L174.272 14.5439C173.992 14.5039 173.651 14.4705 173.251 14.4438C172.864 14.4038 172.51 14.3838 172.19 14.3838C171.376 14.3838 170.668 14.4906 170.068 14.7041C169.481 14.9043 168.987 15.2046 168.586 15.605C168.199 16.0054 167.906 16.4925 167.706 17.0664C167.519 17.6403 167.412 18.2943 167.385 19.0283L166.224 18.668C166.224 17.2666 166.364 15.9787 166.645 14.8042C166.925 13.6164 167.332 12.582 167.866 11.7012C168.413 10.8203 169.08 10.1396 169.868 9.65918C170.655 9.17871 171.556 8.93848 172.57 8.93848C172.891 8.93848 173.218 8.96517 173.551 9.01855C173.885 9.05859 174.159 9.11865 174.372 9.19873Z" fill="#E3C08D"/>
</svg>
